<svg xmlns="http://www.w3.org/2000/svg" xmlns:xlink="http://www.w3.org/1999/xlink" width="6912" zoomAndPan="magnify" viewBox="0 0 5184 2592.000001" height="3456" preserveAspectRatio="xMidYMid meet" version="1.0"><defs><g/><clipPath id="55fe41c7c6"><path d="M 1 0 L 5183 0 L 5183 2591 L 1 2591 Z M 1 0 " clip-rule="nonzero"/></clipPath><clipPath id="9cc008e9ce"><path d="M 268.878906 878.226562 L 914.6875 878.226562 L 914.6875 1524.035156 L 268.878906 1524.035156 Z M 268.878906 878.226562 " clip-rule="nonzero"/></clipPath><clipPath id="29ee268f6e"><path d="M 591.78125 878.226562 C 413.449219 878.226562 268.878906 1022.792969 268.878906 1201.128906 C 268.878906 1379.464844 413.449219 1524.035156 591.78125 1524.035156 C 770.117188 1524.035156 914.6875 1379.464844 914.6875 1201.128906 C 914.6875 1022.792969 770.117188 878.226562 591.78125 878.226562 " clip-rule="nonzero"/></clipPath><clipPath id="d3a04d672c"><path d="M 591.78125 1155.816406 L 1237.589844 1155.816406 L 1237.589844 1801.625 L 591.78125 1801.625 Z M 591.78125 1155.816406 " clip-rule="nonzero"/></clipPath><clipPath id="8e1f77d7c3"><path d="M 914.6875 1155.816406 C 736.351562 1155.816406 591.78125 1300.382812 591.78125 1478.71875 C 591.78125 1657.054688 736.351562 1801.625 914.6875 1801.625 C 1093.023438 1801.625 1237.589844 1657.054688 1237.589844 1478.71875 C 1237.589844 1300.382812 1093.023438 1155.816406 914.6875 1155.816406 " clip-rule="nonzero"/></clipPath><clipPath id="050103a36c"><path d="M 683.65625 1247.6875 L 1145.71875 1247.6875 L 1145.71875 1709.75 L 683.65625 1709.75 Z M 683.65625 1247.6875 " clip-rule="nonzero"/></clipPath><clipPath id="3a84b8604f"><path d="M 914.6875 1247.6875 C 787.09375 1247.6875 683.65625 1351.125 683.65625 1478.71875 C 683.65625 1606.3125 787.09375 1709.75 914.6875 1709.75 C 1042.28125 1709.75 1145.71875 1606.3125 1145.71875 1478.71875 C 1145.71875 1351.125 1042.28125 1247.6875 914.6875 1247.6875 " clip-rule="nonzero"/></clipPath></defs><g clip-path="url(#55fe41c7c6)"><path fill="#ffffff" d="M 1 0 L 5183 0 L 5183 2598.496094 L 1 2598.496094 Z M 1 0 " fill-opacity="1" fill-rule="nonzero"/></g><path fill="#ffffff" d="M 1 0 L 5183 0 L 5183 2591 L 1 2591 Z M 1 0 " fill-opacity="1" fill-rule="nonzero"/><path fill="#fffbee" d="M 1 0 L 5183 0 L 5183 2591 L 1 2591 Z M 1 0 " fill-opacity="1" fill-rule="nonzero"/><g fill="#001c2c" fill-opacity="1"><g transform="translate(1294.129971, 1337.595784)"><g><path d="M 85.21875 -58.25 C 43.125 -99.53125 22.078125 -151.847656 22.078125 -215.203125 C 22.078125 -278.554688 43.226562 -330.875 85.53125 -372.15625 C 127.832031 -413.445312 179.640625 -434.09375 240.953125 -434.09375 C 287.554688 -434.09375 328.941406 -422.238281 365.109375 -398.53125 C 401.285156 -374.820312 427.140625 -341.507812 442.671875 -298.59375 L 339.0625 -298.59375 C 319.84375 -336.195312 287.140625 -355 240.953125 -355 C 202.128906 -355 170.554688 -342.222656 146.234375 -316.671875 C 121.910156 -291.128906 109.75 -257.203125 109.75 -214.890625 C 109.75 -172.585938 121.910156 -138.660156 146.234375 -113.109375 C 170.554688 -87.566406 200.394531 -74.796875 235.75 -74.796875 C 271.101562 -74.796875 298.894531 -83.484375 319.125 -100.859375 C 339.363281 -118.234375 351.9375 -141.632812 356.84375 -171.0625 L 214.59375 -171.0625 L 214.59375 -236.671875 L 449.421875 -236.671875 L 449.421875 -171.0625 C 442.066406 -124.46875 419.175781 -83.695312 380.75 -48.75 C 342.320312 -13.800781 293.984375 3.671875 235.734375 3.671875 C 177.492188 3.671875 127.320312 -16.96875 85.21875 -58.25 Z M 85.21875 -58.25 "/></g></g></g><g fill="#001c2c" fill-opacity="1"><g transform="translate(1765.620215, 1337.595784)"><g><path d="M 262.40625 -96.5625 C 280.394531 -114.34375 289.390625 -138.765625 289.390625 -169.828125 C 289.390625 -200.898438 280.394531 -225.328125 262.40625 -243.109375 C 244.425781 -260.890625 223.378906 -269.78125 199.265625 -269.78125 C 175.148438 -269.78125 154.203125 -260.988281 136.421875 -243.40625 C 118.640625 -225.832031 109.75 -201.507812 109.75 -170.4375 C 109.75 -139.375 118.738281 -114.847656 136.71875 -96.859375 C 154.707031 -78.878906 175.65625 -69.890625 199.5625 -69.890625 C 223.476562 -69.890625 244.425781 -78.78125 262.40625 -96.5625 Z M 67.75 -44.453125 C 37.300781 -77.359375 22.078125 -119.359375 22.078125 -170.453125 C 22.078125 -221.546875 37.195312 -263.335938 67.4375 -295.828125 C 97.6875 -328.328125 136.109375 -344.578125 182.703125 -344.578125 C 229.304688 -344.578125 264.867188 -325.363281 289.390625 -286.9375 L 289.390625 -339.671875 L 375.234375 -339.671875 L 375.234375 0 L 289.390625 0 L 289.390625 -57.015625 C 263.640625 -15.734375 227.875 4.90625 182.09375 4.90625 C 136.3125 4.90625 98.195312 -11.546875 67.75 -44.453125 Z M 67.75 -44.453125 "/></g></g></g><g fill="#001c2c" fill-opacity="1"><g transform="translate(2186.834524, 1337.595784)"><g><path d="M 431.03125 -339.671875 L 513.796875 -339.671875 L 409.5625 0 L 317.59375 0 L 259.359375 -228.078125 L 200.484375 0 L 108.515625 0 L 4.296875 -339.671875 L 91.359375 -339.671875 L 153.890625 -81.546875 L 216.4375 -339.671875 L 307.171875 -339.671875 L 368.484375 -82.15625 Z M 431.03125 -339.671875 "/></g></g></g><g fill="#001c2c" fill-opacity="1"><g transform="translate(2704.308992, 1337.595784)"><g><path d="M 189.453125 4.90625 C 139.992188 4.90625 99.734375 -11.132812 68.671875 -43.21875 C 37.609375 -75.3125 22.078125 -117.722656 22.078125 -170.453125 C 22.078125 -223.179688 37.707031 -265.382812 68.96875 -297.0625 C 100.238281 -328.738281 140.707031 -344.578125 190.375 -344.578125 C 240.039062 -344.578125 280.8125 -329.144531 312.6875 -298.28125 C 344.570312 -267.425781 360.515625 -226.242188 360.515625 -174.734375 C 360.515625 -162.878906 359.695312 -151.84375 358.0625 -141.625 L 110.359375 -141.625 C 112.398438 -119.550781 120.570312 -101.769531 134.875 -88.28125 C 149.1875 -74.800781 167.378906 -68.0625 189.453125 -68.0625 C 219.296875 -68.0625 241.367188 -80.320312 255.671875 -104.84375 L 348.875 -104.84375 C 339.0625 -72.550781 320.050781 -46.1875 291.84375 -25.75 C 263.644531 -5.3125 229.515625 4.90625 189.453125 4.90625 Z M 271 -197.421875 C 269.769531 -219.898438 261.488281 -237.882812 246.15625 -251.375 C 230.832031 -264.863281 212.335938 -271.609375 190.671875 -271.609375 C 169.015625 -271.609375 150.929688 -264.863281 136.421875 -251.375 C 121.910156 -237.882812 113.222656 -219.898438 110.359375 -197.421875 Z M 271 -197.421875 "/></g></g></g><g fill="#001c2c" fill-opacity="1"><g transform="translate(3086.896595, 1337.595784)"><g><path d="M 67.75 -44.453125 C 37.300781 -77.359375 22.078125 -119.359375 22.078125 -170.453125 C 22.078125 -221.546875 37.195312 -263.335938 67.4375 -295.828125 C 97.6875 -328.328125 136.109375 -344.578125 182.703125 -344.578125 C 229.304688 -344.578125 264.867188 -325.363281 289.390625 -286.9375 L 289.390625 -339.671875 L 375.234375 -339.671875 L 375.234375 2.453125 C 375.234375 51.097656 360.925781 90.847656 332.3125 121.703125 C 303.695312 152.566406 263.535156 168 211.828125 168 C 160.128906 168 119.050781 157.269531 88.59375 135.8125 C 58.144531 114.351562 40.875 83.796875 36.78125 44.140625 L 121.40625 44.140625 C 126.71875 59.265625 136.929688 71.21875 152.046875 80 C 167.171875 88.789062 186.175781 93.1875 209.0625 93.1875 C 231.957031 93.1875 251.066406 85.625 266.390625 70.5 C 281.722656 55.382812 289.390625 32.703125 289.390625 2.453125 L 289.390625 -57.015625 C 263.640625 -15.734375 227.875 4.90625 182.09375 4.90625 C 136.3125 4.90625 98.195312 -11.546875 67.75 -44.453125 Z M 262.40625 -96.5625 C 280.394531 -114.34375 289.390625 -138.765625 289.390625 -169.828125 C 289.390625 -200.898438 280.394531 -225.328125 262.40625 -243.109375 C 244.425781 -260.890625 223.378906 -269.78125 199.265625 -269.78125 C 175.148438 -269.78125 154.203125 -260.988281 136.421875 -243.40625 C 118.640625 -225.832031 109.75 -201.507812 109.75 -170.4375 C 109.75 -139.375 118.738281 -114.847656 136.71875 -96.859375 C 154.707031 -78.878906 175.65625 -69.890625 199.5625 -69.890625 C 223.476562 -69.890625 244.425781 -78.78125 262.40625 -96.5625 Z M 262.40625 -96.5625 "/></g></g></g><g fill="#001c2c" fill-opacity="1"><g transform="translate(3508.110868, 1337.595784)"><g><path d="M 262.40625 -96.5625 C 280.394531 -114.34375 289.390625 -138.765625 289.390625 -169.828125 C 289.390625 -200.898438 280.394531 -225.328125 262.40625 -243.109375 C 244.425781 -260.890625 223.378906 -269.78125 199.265625 -269.78125 C 175.148438 -269.78125 154.203125 -260.988281 136.421875 -243.40625 C 118.640625 -225.832031 109.75 -201.507812 109.75 -170.4375 C 109.75 -139.375 118.738281 -114.847656 136.71875 -96.859375 C 154.707031 -78.878906 175.65625 -69.890625 199.5625 -69.890625 C 223.476562 -69.890625 244.425781 -78.78125 262.40625 -96.5625 Z M 67.75 -44.453125 C 37.300781 -77.359375 22.078125 -119.359375 22.078125 -170.453125 C 22.078125 -221.546875 37.195312 -263.335938 67.4375 -295.828125 C 97.6875 -328.328125 136.109375 -344.578125 182.703125 -344.578125 C 229.304688 -344.578125 264.867188 -325.363281 289.390625 -286.9375 L 289.390625 -339.671875 L 375.234375 -339.671875 L 375.234375 0 L 289.390625 0 L 289.390625 -57.015625 C 263.640625 -15.734375 227.875 4.90625 182.09375 4.90625 C 136.3125 4.90625 98.195312 -11.546875 67.75 -44.453125 Z M 67.75 -44.453125 "/></g></g></g><g fill="#001c2c" fill-opacity="1"><g transform="translate(3929.3253, 1337.595784)"><g><path d="M 431.03125 -339.671875 L 513.796875 -339.671875 L 409.5625 0 L 317.59375 0 L 259.359375 -228.078125 L 200.484375 0 L 108.515625 0 L 4.296875 -339.671875 L 91.359375 -339.671875 L 153.890625 -81.546875 L 216.4375 -339.671875 L 307.171875 -339.671875 L 368.484375 -82.15625 Z M 431.03125 -339.671875 "/></g></g></g><g fill="#001c2c" fill-opacity="1"><g transform="translate(4446.799767, 1337.595784)"><g><path d="M 189.453125 4.90625 C 139.992188 4.90625 99.734375 -11.132812 68.671875 -43.21875 C 37.609375 -75.3125 22.078125 -117.722656 22.078125 -170.453125 C 22.078125 -223.179688 37.707031 -265.382812 68.96875 -297.0625 C 100.238281 -328.738281 140.707031 -344.578125 190.375 -344.578125 C 240.039062 -344.578125 280.8125 -329.144531 312.6875 -298.28125 C 344.570312 -267.425781 360.515625 -226.242188 360.515625 -174.734375 C 360.515625 -162.878906 359.695312 -151.84375 358.0625 -141.625 L 110.359375 -141.625 C 112.398438 -119.550781 120.570312 -101.769531 134.875 -88.28125 C 149.1875 -74.800781 167.378906 -68.0625 189.453125 -68.0625 C 219.296875 -68.0625 241.367188 -80.320312 255.671875 -104.84375 L 348.875 -104.84375 C 339.0625 -72.550781 320.050781 -46.1875 291.84375 -25.75 C 263.644531 -5.3125 229.515625 4.90625 189.453125 4.90625 Z M 271 -197.421875 C 269.769531 -219.898438 261.488281 -237.882812 246.15625 -251.375 C 230.832031 -264.863281 212.335938 -271.609375 190.671875 -271.609375 C 169.015625 -271.609375 150.929688 -264.863281 136.421875 -251.375 C 121.910156 -237.882812 113.222656 -219.898438 110.359375 -197.421875 Z M 271 -197.421875 "/></g></g></g><g fill="#737373" fill-opacity="1"><g transform="translate(1362.72304, 1734.454272)"><g><path d="M 27.5 -111.765625 C 27.5 -105.742188 29.070312 -100.828125 32.21875 -97.015625 C 35.375 -93.203125 39.445312 -90.378906 44.4375 -88.546875 C 49.425781 -86.710938 54.925781 -85.132812 60.9375 -83.8125 C 66.945312 -82.5 72.957031 -81.035156 78.96875 -79.421875 C 84.988281 -77.804688 90.488281 -75.710938 95.46875 -73.140625 C 100.457031 -70.578125 104.53125 -66.65625 107.6875 -61.375 C 110.84375 -56.09375 112.421875 -49.566406 112.421875 -41.796875 C 112.421875 -30.210938 108.09375 -20.09375 99.4375 -11.4375 C 90.78125 -2.78125 78.9375 1.546875 63.90625 1.546875 C 48.875 1.546875 36.664062 -1.828125 27.28125 -8.578125 C 17.894531 -15.328125 13.203125 -24.421875 13.203125 -35.859375 L 29.484375 -35.859375 C 30.066406 -28.816406 33.070312 -22.984375 38.5 -18.359375 C 43.925781 -13.742188 52.03125 -11.4375 62.8125 -11.4375 C 73.59375 -11.4375 82.171875 -14.222656 88.546875 -19.796875 C 94.929688 -25.367188 98.125 -32.296875 98.125 -40.578125 C 98.125 -48.867188 95.1875 -55.101562 89.3125 -59.28125 C 83.445312 -63.46875 76.367188 -66.367188 68.078125 -67.984375 C 59.796875 -69.597656 51.507812 -71.46875 43.21875 -73.59375 C 34.9375 -75.71875 27.863281 -79.859375 22 -86.015625 C 16.132812 -92.179688 13.203125 -101.128906 13.203125 -112.859375 C 13.203125 -124.585938 17.5625 -134.265625 26.28125 -141.890625 C 35.007812 -149.523438 46.523438 -153.34375 60.828125 -153.34375 C 75.128906 -153.34375 86.382812 -150.039062 94.59375 -143.4375 C 102.8125 -136.84375 107.800781 -128.046875 109.5625 -117.046875 L 92.1875 -117.046875 C 91.59375 -123.203125 88.507812 -128.585938 82.9375 -133.203125 C 77.363281 -137.828125 69.738281 -140.140625 60.0625 -140.140625 C 50.382812 -140.140625 42.535156 -137.71875 36.515625 -132.875 C 30.503906 -128.039062 27.5 -121.003906 27.5 -111.765625 Z M 27.5 -111.765625 "/></g></g></g><g fill="#737373" fill-opacity="1"><g transform="translate(1499.345947, 1734.454272)"><g><path d="M 66.875 -10.125 C 79.34375 -10.125 90.125 -14.59375 99.21875 -23.53125 C 108.3125 -32.476562 112.859375 -44.6875 112.859375 -60.15625 C 112.859375 -75.632812 108.53125 -87.8125 99.875 -96.6875 C 91.226562 -105.5625 80.671875 -110 68.203125 -110 C 55.734375 -110 45.316406 -105.597656 36.953125 -96.796875 C 28.597656 -87.992188 24.421875 -75.742188 24.421875 -60.046875 C 24.421875 -44.359375 28.378906 -32.113281 36.296875 -23.3125 C 44.222656 -14.519531 54.414062 -10.125 66.875 -10.125 Z M 66.984375 2.203125 C 49.753906 2.203125 35.75 -3.515625 24.96875 -14.953125 C 14.1875 -26.398438 8.796875 -41.398438 8.796875 -59.953125 C 8.796875 -78.503906 14.515625 -93.535156 25.953125 -105.046875 C 37.398438 -116.554688 51.703125 -122.3125 68.859375 -122.3125 C 86.015625 -122.3125 100.3125 -116.554688 111.75 -105.046875 C 123.195312 -93.535156 128.921875 -78.578125 128.921875 -60.171875 C 128.921875 -41.765625 122.90625 -26.765625 110.875 -15.171875 C 98.851562 -3.585938 84.222656 2.203125 66.984375 2.203125 Z M 66.984375 2.203125 "/></g></g></g><g fill="#737373" fill-opacity="1"><g transform="translate(1648.069091, 1734.454272)"><g><path d="M 65.125 -120.125 L 65.125 -108.015625 L 37.1875 -108.015625 L 37.1875 0 L 21.78125 0 L 21.78125 -108.015625 L 5.0625 -108.015625 L 5.0625 -120.125 L 21.78125 -120.125 L 21.78125 -131.78125 C 21.78125 -144.394531 25.078125 -153.5625 31.671875 -159.28125 C 38.273438 -165 48.835938 -167.859375 63.359375 -167.859375 L 63.359375 -155.546875 C 53.679688 -155.546875 46.898438 -153.710938 43.015625 -150.046875 C 39.128906 -146.378906 37.1875 -140.289062 37.1875 -131.78125 L 37.1875 -120.125 Z M 65.125 -120.125 "/></g></g></g><g fill="#737373" fill-opacity="1"><g transform="translate(1731.230903, 1734.454272)"><g><path d="M 69.953125 -108.015625 L 36.734375 -108.015625 L 36.734375 -28.375 C 36.734375 -22.363281 37.90625 -18.144531 40.25 -15.71875 C 42.601562 -13.300781 46.785156 -12.09375 52.796875 -12.09375 L 69.953125 -12.09375 L 69.953125 0 L 49.5 0 C 30.726562 0 21.34375 -9.457031 21.34375 -28.375 L 21.34375 -108.015625 L 4.625 -108.015625 L 4.625 -120.125 L 21.34375 -120.125 L 21.34375 -150.265625 L 36.734375 -150.265625 L 36.734375 -120.125 L 69.953125 -120.125 Z M 69.953125 -108.015625 "/></g></g></g><g fill="#737373" fill-opacity="1"><g transform="translate(1816.812762, 1734.454272)"><g><path d="M 154.875 -120.125 L 171.15625 -120.125 L 132.875 0 L 117.265625 0 L 87.34375 -101.203125 L 57.421875 0 L 41.796875 0 L 3.078125 -120.125 L 19.359375 -120.125 L 49.5 -16.5 L 80.515625 -120.125 L 95.921875 -120.125 L 124.953125 -16.71875 Z M 154.875 -120.125 "/></g></g></g><g fill="#737373" fill-opacity="1"><g transform="translate(2002.056669, 1734.454272)"><g><path d="M 100.640625 -24.53125 C 109.367188 -33.550781 113.734375 -45.394531 113.734375 -60.0625 C 113.734375 -74.726562 109.367188 -86.570312 100.640625 -95.59375 C 91.921875 -104.613281 81.398438 -109.125 69.078125 -109.125 C 56.753906 -109.125 46.265625 -104.796875 37.609375 -96.140625 C 28.960938 -87.484375 24.640625 -75.785156 24.640625 -61.046875 C 24.640625 -46.304688 29 -34.28125 37.71875 -24.96875 C 46.445312 -15.65625 56.9375 -11 69.1875 -11 C 81.4375 -11 91.921875 -15.507812 100.640625 -24.53125 Z M 66.875 2.203125 C 50.15625 2.203125 36.296875 -3.734375 25.296875 -15.609375 C 14.296875 -27.492188 8.796875 -42.640625 8.796875 -61.046875 C 8.796875 -79.453125 14.257812 -94.265625 25.1875 -105.484375 C 36.113281 -116.703125 50.007812 -122.3125 66.875 -122.3125 C 77.726562 -122.3125 87.257812 -119.671875 95.46875 -114.390625 C 103.6875 -109.117188 109.773438 -102.300781 113.734375 -93.9375 L 113.734375 -120.125 L 129.140625 -120.125 L 129.140625 0 L 113.734375 0 L 113.734375 -26.40625 C 109.773438 -18.039062 103.6875 -11.179688 95.46875 -5.828125 C 87.257812 -0.472656 77.726562 2.203125 66.875 2.203125 Z M 66.875 2.203125 "/></g></g></g><g fill="#737373" fill-opacity="1"><g transform="translate(2158.699952, 1734.454272)"><g><path d="M 31.90625 -120.125 L 31.90625 -100.3125 C 38.5 -114.976562 50.890625 -122.3125 69.078125 -122.3125 L 69.078125 -106.265625 L 64.6875 -106.265625 C 54.125 -106.265625 46.019531 -103.398438 40.375 -97.671875 C 34.726562 -91.953125 31.90625 -82.128906 31.90625 -68.203125 L 31.90625 0 L 16.5 0 L 16.5 -120.125 Z M 31.90625 -120.125 "/></g></g></g><g fill="#737373" fill-opacity="1"><g transform="translate(2247.361892, 1734.454272)"><g><path d="M 66.65625 2.203125 C 49.5 2.203125 35.566406 -3.515625 24.859375 -14.953125 C 14.148438 -26.398438 8.796875 -41.472656 8.796875 -60.171875 C 8.796875 -78.867188 14.257812 -93.898438 25.1875 -105.265625 C 36.113281 -116.628906 50.265625 -122.3125 67.640625 -122.3125 C 85.023438 -122.3125 98.847656 -116.957031 109.109375 -106.25 C 119.378906 -95.550781 124.515625 -82.28125 124.515625 -66.4375 C 124.515625 -62.1875 124.222656 -58.226562 123.640625 -54.5625 L 24.640625 -54.5625 C 25.222656 -40.769531 29.398438 -29.914062 37.171875 -22 C 44.953125 -14.082031 54.78125 -10.125 66.65625 -10.125 C 75.894531 -10.125 83.773438 -12.25 90.296875 -16.5 C 96.828125 -20.75 101.34375 -26.320312 103.84375 -33.21875 L 120.34375 -33.21875 C 116.382812 -22.945312 109.929688 -14.472656 100.984375 -7.796875 C 92.035156 -1.128906 80.59375 2.203125 66.65625 2.203125 Z M 108.6875 -66.65625 C 108.6875 -79.851562 104.6875 -90.375 96.6875 -98.21875 C 88.695312 -106.070312 78.796875 -110 66.984375 -110 C 55.179688 -110 45.351562 -106.148438 37.5 -98.453125 C 29.65625 -90.753906 25.367188 -80.15625 24.640625 -66.65625 Z M 108.6875 -66.65625 "/></g></g></g><g fill="#737373" fill-opacity="1"><g transform="translate(2391.46499, 1734.454272)"><g/></g></g><g fill="#737373" fill-opacity="1"><g transform="translate(2468.466714, 1734.454272)"><g><path d="M 100.640625 -24.53125 C 109.367188 -33.550781 113.734375 -45.394531 113.734375 -60.0625 C 113.734375 -74.726562 109.367188 -86.570312 100.640625 -95.59375 C 91.921875 -104.613281 81.398438 -109.125 69.078125 -109.125 C 56.753906 -109.125 46.265625 -104.796875 37.609375 -96.140625 C 28.960938 -87.484375 24.640625 -75.785156 24.640625 -61.046875 C 24.640625 -46.304688 29 -34.28125 37.71875 -24.96875 C 46.445312 -15.65625 56.9375 -11 69.1875 -11 C 81.4375 -11 91.921875 -15.507812 100.640625 -24.53125 Z M 66.875 2.203125 C 50.15625 2.203125 36.296875 -3.734375 25.296875 -15.609375 C 14.296875 -27.492188 8.796875 -42.640625 8.796875 -61.046875 C 8.796875 -79.453125 14.257812 -94.265625 25.1875 -105.484375 C 36.113281 -116.703125 50.007812 -122.3125 66.875 -122.3125 C 77.726562 -122.3125 87.257812 -119.671875 95.46875 -114.390625 C 103.6875 -109.117188 109.773438 -102.300781 113.734375 -93.9375 L 113.734375 -120.125 L 129.140625 -120.125 L 129.140625 0 L 113.734375 0 L 113.734375 -26.40625 C 109.773438 -18.039062 103.6875 -11.179688 95.46875 -5.828125 C 87.257812 -0.472656 77.726562 2.203125 66.875 2.203125 Z M 66.875 2.203125 "/></g></g></g><g fill="#737373" fill-opacity="1"><g transform="translate(2625.110072, 1734.454272)"><g><path d="M 31.90625 -120.125 L 31.90625 -100.546875 C 39.96875 -115.054688 53.238281 -122.3125 71.71875 -122.3125 C 85.0625 -122.3125 96.207031 -117.945312 105.15625 -109.21875 C 114.101562 -100.5 118.578125 -87.925781 118.578125 -71.5 L 118.578125 0 L 103.40625 0 L 103.40625 -68.640625 C 103.40625 -81.835938 100.210938 -91.882812 93.828125 -98.78125 C 87.453125 -105.675781 78.726562 -109.125 67.65625 -109.125 C 56.582031 -109.125 47.851562 -105.675781 41.46875 -98.78125 C 35.09375 -91.882812 31.90625 -81.835938 31.90625 -68.640625 L 31.90625 0 L 16.5 0 L 16.5 -120.125 Z M 31.90625 -120.125 "/></g></g></g><g fill="#737373" fill-opacity="1"><g transform="translate(2770.09314, 1734.454272)"><g><path d="M 100.640625 -24.53125 C 109.367188 -33.550781 113.734375 -45.394531 113.734375 -60.0625 C 113.734375 -74.726562 109.367188 -86.570312 100.640625 -95.59375 C 91.921875 -104.613281 81.398438 -109.125 69.078125 -109.125 C 56.753906 -109.125 46.265625 -104.796875 37.609375 -96.140625 C 28.960938 -87.484375 24.640625 -75.785156 24.640625 -61.046875 C 24.640625 -46.304688 29 -34.28125 37.71875 -24.96875 C 46.445312 -15.65625 56.9375 -11 69.1875 -11 C 81.4375 -11 91.921875 -15.507812 100.640625 -24.53125 Z M 66.875 2.203125 C 50.15625 2.203125 36.296875 -3.734375 25.296875 -15.609375 C 14.296875 -27.492188 8.796875 -42.640625 8.796875 -61.046875 C 8.796875 -79.453125 14.257812 -94.265625 25.1875 -105.484375 C 36.113281 -116.703125 50.007812 -122.3125 66.875 -122.3125 C 77.726562 -122.3125 87.257812 -119.671875 95.46875 -114.390625 C 103.6875 -109.117188 109.773438 -102.300781 113.734375 -93.9375 L 113.734375 -162.796875 L 129.140625 -162.796875 L 129.140625 0 L 113.734375 0 L 113.734375 -26.40625 C 109.773438 -18.039062 103.6875 -11.179688 95.46875 -5.828125 C 87.257812 -0.472656 77.726562 2.203125 66.875 2.203125 Z M 66.875 2.203125 "/></g></g></g><g fill="#737373" fill-opacity="1"><g transform="translate(2926.736423, 1734.454272)"><g/></g></g><g fill="#737373" fill-opacity="1"><g transform="translate(3003.738073, 1734.454272)"><g><path d="M 31.90625 -11.875 L 63.140625 -11.875 C 83.523438 -11.875 99.035156 -17.410156 109.671875 -28.484375 C 120.304688 -39.554688 125.625 -55.066406 125.625 -75.015625 C 125.625 -94.960938 120.304688 -110.472656 109.671875 -121.546875 C 99.035156 -132.617188 83.523438 -138.15625 63.140625 -138.15625 L 31.90625 -138.15625 Z M 63.140625 -151.796875 C 87.628906 -151.796875 106.800781 -145.007812 120.65625 -131.4375 C 134.519531 -117.875 141.453125 -99.066406 141.453125 -75.015625 C 141.453125 -50.960938 134.554688 -32.445312 120.765625 -19.46875 C 106.984375 -6.488281 87.773438 0 63.140625 0 L 16.5 0 L 16.5 -151.796875 Z M 63.140625 -151.796875 "/></g></g></g><g fill="#737373" fill-opacity="1"><g transform="translate(3165.441537, 1734.454272)"><g><path d="M 66.65625 2.203125 C 49.5 2.203125 35.566406 -3.515625 24.859375 -14.953125 C 14.148438 -26.398438 8.796875 -41.472656 8.796875 -60.171875 C 8.796875 -78.867188 14.257812 -93.898438 25.1875 -105.265625 C 36.113281 -116.628906 50.265625 -122.3125 67.640625 -122.3125 C 85.023438 -122.3125 98.847656 -116.957031 109.109375 -106.25 C 119.378906 -95.550781 124.515625 -82.28125 124.515625 -66.4375 C 124.515625 -62.1875 124.222656 -58.226562 123.640625 -54.5625 L 24.640625 -54.5625 C 25.222656 -40.769531 29.398438 -29.914062 37.171875 -22 C 44.953125 -14.082031 54.78125 -10.125 66.65625 -10.125 C 75.894531 -10.125 83.773438 -12.25 90.296875 -16.5 C 96.828125 -20.75 101.34375 -26.320312 103.84375 -33.21875 L 120.34375 -33.21875 C 116.382812 -22.945312 109.929688 -14.472656 100.984375 -7.796875 C 92.035156 -1.128906 80.59375 2.203125 66.65625 2.203125 Z M 108.6875 -66.65625 C 108.6875 -79.851562 104.6875 -90.375 96.6875 -98.21875 C 88.695312 -106.070312 78.796875 -110 66.984375 -110 C 55.179688 -110 45.351562 -106.148438 37.5 -98.453125 C 29.65625 -90.753906 25.367188 -80.15625 24.640625 -66.65625 Z M 108.6875 -66.65625 "/></g></g></g><g fill="#737373" fill-opacity="1"><g transform="translate(3309.54456, 1734.454272)"><g><path d="M 13.203125 -86.90625 C 13.203125 -96.875 17.304688 -105.265625 25.515625 -112.078125 C 33.734375 -118.898438 44.222656 -122.3125 56.984375 -122.3125 C 69.742188 -122.3125 79.675781 -118.972656 86.78125 -112.296875 C 93.894531 -105.628906 97.820312 -96.429688 98.5625 -84.703125 L 82.71875 -84.703125 C 82.425781 -92.035156 79.929688 -98.082031 75.234375 -102.84375 C 70.546875 -107.613281 64.019531 -110 55.65625 -110 C 47.300781 -110 40.738281 -107.945312 35.96875 -103.84375 C 31.195312 -99.738281 28.8125 -94.785156 28.8125 -88.984375 C 28.8125 -83.191406 30.570312 -78.609375 34.09375 -75.234375 C 37.613281 -71.867188 42.050781 -69.597656 47.40625 -68.421875 C 52.757812 -67.242188 58.550781 -65.847656 64.78125 -64.234375 C 71.019531 -62.617188 76.816406 -60.894531 82.171875 -59.0625 C 87.523438 -57.226562 91.960938 -53.925781 95.484375 -49.15625 C 99.003906 -44.394531 100.765625 -38.273438 100.765625 -30.796875 C 100.765625 -21.117188 96.726562 -13.195312 88.65625 -7.03125 C 80.59375 -0.875 70 2.203125 56.875 2.203125 C 43.75 2.203125 33.367188 -1.171875 25.734375 -7.921875 C 18.109375 -14.671875 13.929688 -23.835938 13.203125 -35.421875 L 29.046875 -35.421875 C 29.335938 -27.941406 31.972656 -21.851562 36.953125 -17.15625 C 41.941406 -12.46875 48.800781 -10.125 57.53125 -10.125 C 66.257812 -10.125 73.039062 -11.992188 77.875 -15.734375 C 82.71875 -19.472656 85.140625 -24.273438 85.140625 -30.140625 C 85.140625 -36.003906 83.378906 -40.625 79.859375 -44 C 76.335938 -47.375 71.898438 -49.679688 66.546875 -50.921875 C 61.191406 -52.171875 55.394531 -53.601562 49.15625 -55.21875 C 42.925781 -56.832031 37.132812 -58.519531 31.78125 -60.28125 C 26.4375 -62.039062 22.003906 -65.191406 18.484375 -69.734375 C 14.960938 -74.285156 13.203125 -80.007812 13.203125 -86.90625 Z M 13.203125 -86.90625 "/></g></g></g><g fill="#737373" fill-opacity="1"><g transform="translate(3434.507288, 1734.454272)"><g><path d="M 35.640625 -154.109375 C 35.640625 -150.953125 34.578125 -148.273438 32.453125 -146.078125 C 30.328125 -143.878906 27.6875 -142.78125 24.53125 -142.78125 C 21.375 -142.78125 18.695312 -143.878906 16.5 -146.078125 C 14.300781 -148.273438 13.203125 -150.953125 13.203125 -154.109375 C 13.203125 -157.265625 14.300781 -159.941406 16.5 -162.140625 C 18.695312 -164.335938 21.375 -165.4375 24.53125 -165.4375 C 27.6875 -165.4375 30.328125 -164.335938 32.453125 -162.140625 C 34.578125 -159.941406 35.640625 -157.265625 35.640625 -154.109375 Z M 16.5 0 L 16.5 -120.125 L 31.90625 -120.125 L 31.90625 0 Z M 16.5 0 "/></g></g></g><g fill="#737373" fill-opacity="1"><g transform="translate(3493.908646, 1734.454272)"><g><path d="M 66.875 2.203125 C 50.15625 2.203125 36.296875 -3.734375 25.296875 -15.609375 C 14.296875 -27.492188 8.796875 -42.640625 8.796875 -61.046875 C 8.796875 -79.453125 14.257812 -94.265625 25.1875 -105.484375 C 36.113281 -116.703125 50.007812 -122.3125 66.875 -122.3125 C 77.726562 -122.3125 87.257812 -119.671875 95.46875 -114.390625 C 103.6875 -109.117188 109.773438 -102.300781 113.734375 -93.9375 L 113.734375 -120.125 L 129.140625 -120.125 L 129.140625 4.1875 C 129.140625 20.457031 123.75 33.648438 112.96875 43.765625 C 102.1875 53.890625 89.019531 58.953125 73.46875 58.953125 C 57.925781 58.953125 44.800781 55.140625 34.09375 47.515625 C 23.394531 39.890625 17.238281 30.429688 15.625 19.140625 L 30.796875 19.140625 C 32.703125 26.617188 37.539062 32.925781 45.3125 38.0625 C 53.09375 43.195312 62.628906 45.765625 73.921875 45.765625 C 85.210938 45.765625 94.671875 42.0625 102.296875 34.65625 C 109.921875 27.25 113.734375 17.09375 113.734375 4.1875 L 113.734375 -26.40625 C 109.773438 -18.039062 103.6875 -11.179688 95.46875 -5.828125 C 87.257812 -0.472656 77.726562 2.203125 66.875 2.203125 Z M 100.640625 -24.53125 C 109.367188 -33.550781 113.734375 -45.394531 113.734375 -60.0625 C 113.734375 -74.726562 109.367188 -86.570312 100.640625 -95.59375 C 91.921875 -104.613281 81.398438 -109.125 69.078125 -109.125 C 56.753906 -109.125 46.265625 -104.796875 37.609375 -96.140625 C 28.960938 -87.484375 24.640625 -75.785156 24.640625 -61.046875 C 24.640625 -46.304688 29 -34.28125 37.71875 -24.96875 C 46.445312 -15.65625 56.9375 -11 69.1875 -11 C 81.4375 -11 91.921875 -15.507812 100.640625 -24.53125 Z M 100.640625 -24.53125 "/></g></g></g><g fill="#737373" fill-opacity="1"><g transform="translate(3650.55193, 1734.454272)"><g><path d="M 31.90625 -120.125 L 31.90625 -100.546875 C 39.96875 -115.054688 53.238281 -122.3125 71.71875 -122.3125 C 85.0625 -122.3125 96.207031 -117.945312 105.15625 -109.21875 C 114.101562 -100.5 118.578125 -87.925781 118.578125 -71.5 L 118.578125 0 L 103.40625 0 L 103.40625 -68.640625 C 103.40625 -81.835938 100.210938 -91.882812 93.828125 -98.78125 C 87.453125 -105.675781 78.726562 -109.125 67.65625 -109.125 C 56.582031 -109.125 47.851562 -105.675781 41.46875 -98.78125 C 35.09375 -91.882812 31.90625 -81.835938 31.90625 -68.640625 L 31.90625 0 L 16.5 0 L 16.5 -120.125 Z M 31.90625 -120.125 "/></g></g></g><g fill="#737373" fill-opacity="1"><g transform="translate(3795.534998, 1734.454272)"><g/></g></g><g fill="#737373" fill-opacity="1"><g transform="translate(3872.536647, 1734.454272)"><g><path d="M 27.5 -111.765625 C 27.5 -105.742188 29.070312 -100.828125 32.21875 -97.015625 C 35.375 -93.203125 39.445312 -90.378906 44.4375 -88.546875 C 49.425781 -86.710938 54.925781 -85.132812 60.9375 -83.8125 C 66.945312 -82.5 72.957031 -81.035156 78.96875 -79.421875 C 84.988281 -77.804688 90.488281 -75.710938 95.46875 -73.140625 C 100.457031 -70.578125 104.53125 -66.65625 107.6875 -61.375 C 110.84375 -56.09375 112.421875 -49.566406 112.421875 -41.796875 C 112.421875 -30.210938 108.09375 -20.09375 99.4375 -11.4375 C 90.78125 -2.78125 78.9375 1.546875 63.90625 1.546875 C 48.875 1.546875 36.664062 -1.828125 27.28125 -8.578125 C 17.894531 -15.328125 13.203125 -24.421875 13.203125 -35.859375 L 29.484375 -35.859375 C 30.066406 -28.816406 33.070312 -22.984375 38.5 -18.359375 C 43.925781 -13.742188 52.03125 -11.4375 62.8125 -11.4375 C 73.59375 -11.4375 82.171875 -14.222656 88.546875 -19.796875 C 94.929688 -25.367188 98.125 -32.296875 98.125 -40.578125 C 98.125 -48.867188 95.1875 -55.101562 89.3125 -59.28125 C 83.445312 -63.46875 76.367188 -66.367188 68.078125 -67.984375 C 59.796875 -69.597656 51.507812 -71.46875 43.21875 -73.59375 C 34.9375 -75.71875 27.863281 -79.859375 22 -86.015625 C 16.132812 -92.179688 13.203125 -101.128906 13.203125 -112.859375 C 13.203125 -124.585938 17.5625 -134.265625 26.28125 -141.890625 C 35.007812 -149.523438 46.523438 -153.34375 60.828125 -153.34375 C 75.128906 -153.34375 86.382812 -150.039062 94.59375 -143.4375 C 102.8125 -136.84375 107.800781 -128.046875 109.5625 -117.046875 L 92.1875 -117.046875 C 91.59375 -123.203125 88.507812 -128.585938 82.9375 -133.203125 C 77.363281 -137.828125 69.738281 -140.140625 60.0625 -140.140625 C 50.382812 -140.140625 42.535156 -137.71875 36.515625 -132.875 C 30.503906 -128.039062 27.5 -121.003906 27.5 -111.765625 Z M 27.5 -111.765625 "/></g></g></g><g fill="#737373" fill-opacity="1"><g transform="translate(4009.159442, 1734.454272)"><g><path d="M 66.875 -10.125 C 79.34375 -10.125 90.125 -14.59375 99.21875 -23.53125 C 108.3125 -32.476562 112.859375 -44.6875 112.859375 -60.15625 C 112.859375 -75.632812 108.53125 -87.8125 99.875 -96.6875 C 91.226562 -105.5625 80.671875 -110 68.203125 -110 C 55.734375 -110 45.316406 -105.597656 36.953125 -96.796875 C 28.597656 -87.992188 24.421875 -75.742188 24.421875 -60.046875 C 24.421875 -44.359375 28.378906 -32.113281 36.296875 -23.3125 C 44.222656 -14.519531 54.414062 -10.125 66.875 -10.125 Z M 66.984375 2.203125 C 49.753906 2.203125 35.75 -3.515625 24.96875 -14.953125 C 14.1875 -26.398438 8.796875 -41.398438 8.796875 -59.953125 C 8.796875 -78.503906 14.515625 -93.535156 25.953125 -105.046875 C 37.398438 -116.554688 51.703125 -122.3125 68.859375 -122.3125 C 86.015625 -122.3125 100.3125 -116.554688 111.75 -105.046875 C 123.195312 -93.535156 128.921875 -78.578125 128.921875 -60.171875 C 128.921875 -41.765625 122.90625 -26.765625 110.875 -15.171875 C 98.851562 -3.585938 84.222656 2.203125 66.984375 2.203125 Z M 66.984375 2.203125 "/></g></g></g><g fill="#737373" fill-opacity="1"><g transform="translate(4157.882474, 1734.454272)"><g><path d="M 16.5 0 L 16.5 -162.796875 L 31.90625 -162.796875 L 31.90625 0 Z M 16.5 0 "/></g></g></g><g fill="#737373" fill-opacity="1"><g transform="translate(4217.283832, 1734.454272)"><g><path d="M 102.078125 -120.125 L 117.484375 -120.125 L 117.484375 0 L 102.078125 0 L 102.078125 -19.578125 C 94.015625 -5.054688 80.742188 2.203125 62.265625 2.203125 C 48.910156 2.203125 37.757812 -2.160156 28.8125 -10.890625 C 19.875 -19.617188 15.40625 -32.195312 15.40625 -48.625 L 15.40625 -120.125 L 30.578125 -120.125 L 30.578125 -51.484375 C 30.578125 -38.285156 33.765625 -28.238281 40.140625 -21.34375 C 46.523438 -14.445312 55.253906 -11 66.328125 -11 C 77.398438 -11 86.125 -14.445312 92.5 -21.34375 C 98.882812 -28.238281 102.078125 -38.285156 102.078125 -51.484375 Z M 102.078125 -120.125 "/></g></g></g><g fill="#737373" fill-opacity="1"><g transform="translate(4362.2669, 1734.454272)"><g><path d="M 69.953125 -108.015625 L 36.734375 -108.015625 L 36.734375 -28.375 C 36.734375 -22.363281 37.90625 -18.144531 40.25 -15.71875 C 42.601562 -13.300781 46.785156 -12.09375 52.796875 -12.09375 L 69.953125 -12.09375 L 69.953125 0 L 49.5 0 C 30.726562 0 21.34375 -9.457031 21.34375 -28.375 L 21.34375 -108.015625 L 4.625 -108.015625 L 4.625 -120.125 L 21.34375 -120.125 L 21.34375 -150.265625 L 36.734375 -150.265625 L 36.734375 -120.125 L 69.953125 -120.125 Z M 69.953125 -108.015625 "/></g></g></g><g fill="#737373" fill-opacity="1"><g transform="translate(4447.848908, 1734.454272)"><g><path d="M 35.640625 -154.109375 C 35.640625 -150.953125 34.578125 -148.273438 32.453125 -146.078125 C 30.328125 -143.878906 27.6875 -142.78125 24.53125 -142.78125 C 21.375 -142.78125 18.695312 -143.878906 16.5 -146.078125 C 14.300781 -148.273438 13.203125 -150.953125 13.203125 -154.109375 C 13.203125 -157.265625 14.300781 -159.941406 16.5 -162.140625 C 18.695312 -164.335938 21.375 -165.4375 24.53125 -165.4375 C 27.6875 -165.4375 30.328125 -164.335938 32.453125 -162.140625 C 34.578125 -159.941406 35.640625 -157.265625 35.640625 -154.109375 Z M 16.5 0 L 16.5 -120.125 L 31.90625 -120.125 L 31.90625 0 Z M 16.5 0 "/></g></g></g><g fill="#737373" fill-opacity="1"><g transform="translate(4507.250266, 1734.454272)"><g><path d="M 66.875 -10.125 C 79.34375 -10.125 90.125 -14.59375 99.21875 -23.53125 C 108.3125 -32.476562 112.859375 -44.6875 112.859375 -60.15625 C 112.859375 -75.632812 108.53125 -87.8125 99.875 -96.6875 C 91.226562 -105.5625 80.671875 -110 68.203125 -110 C 55.734375 -110 45.316406 -105.597656 36.953125 -96.796875 C 28.597656 -87.992188 24.421875 -75.742188 24.421875 -60.046875 C 24.421875 -44.359375 28.378906 -32.113281 36.296875 -23.3125 C 44.222656 -14.519531 54.414062 -10.125 66.875 -10.125 Z M 66.984375 2.203125 C 49.753906 2.203125 35.75 -3.515625 24.96875 -14.953125 C 14.1875 -26.398438 8.796875 -41.398438 8.796875 -59.953125 C 8.796875 -78.503906 14.515625 -93.535156 25.953125 -105.046875 C 37.398438 -116.554688 51.703125 -122.3125 68.859375 -122.3125 C 86.015625 -122.3125 100.3125 -116.554688 111.75 -105.046875 C 123.195312 -93.535156 128.921875 -78.578125 128.921875 -60.171875 C 128.921875 -41.765625 122.90625 -26.765625 110.875 -15.171875 C 98.851562 -3.585938 84.222656 2.203125 66.984375 2.203125 Z M 66.984375 2.203125 "/></g></g></g><g fill="#737373" fill-opacity="1"><g transform="translate(4655.973299, 1734.454272)"><g><path d="M 31.90625 -120.125 L 31.90625 -100.546875 C 39.96875 -115.054688 53.238281 -122.3125 71.71875 -122.3125 C 85.0625 -122.3125 96.207031 -117.945312 105.15625 -109.21875 C 114.101562 -100.5 118.578125 -87.925781 118.578125 -71.5 L 118.578125 0 L 103.40625 0 L 103.40625 -68.640625 C 103.40625 -81.835938 100.210938 -91.882812 93.828125 -98.78125 C 87.453125 -105.675781 78.726562 -109.125 67.65625 -109.125 C 56.582031 -109.125 47.851562 -105.675781 41.46875 -98.78125 C 35.09375 -91.882812 31.90625 -81.835938 31.90625 -68.640625 L 31.90625 0 L 16.5 0 L 16.5 -120.125 Z M 31.90625 -120.125 "/></g></g></g><g clip-path="url(#9cc008e9ce)"><g clip-path="url(#29ee268f6e)"><path fill="#f83232" d="M 268.878906 878.226562 L 914.6875 878.226562 L 914.6875 1524.035156 L 268.878906 1524.035156 Z M 268.878906 878.226562 " fill-opacity="1" fill-rule="nonzero"/></g></g><g clip-path="url(#d3a04d672c)"><g clip-path="url(#8e1f77d7c3)"><path fill="#ffb23e" d="M 591.78125 1155.816406 L 1237.589844 1155.816406 L 1237.589844 1801.625 L 591.78125 1801.625 Z M 591.78125 1155.816406 " fill-opacity="1" fill-rule="nonzero"/></g></g><g clip-path="url(#050103a36c)"><g clip-path="url(#3a84b8604f)"><path fill="#f83232" d="M 683.65625 1247.6875 L 1145.71875 1247.6875 L 1145.71875 1709.75 L 683.65625 1709.75 Z M 683.65625 1247.6875 " fill-opacity="1" fill-rule="nonzero"/></g></g></svg>